<?xml version="1.0" encoding="utf-8"?>
<!-- Generator: Adobe Illustrator 25.3.1, SVG Export Plug-In . SVG Version: 6.00 Build 0)  -->
<svg version="1.1" id="Layer_1" xmlns="http://www.w3.org/2000/svg" xmlns:xlink="http://www.w3.org/1999/xlink" x="0px" y="0px"
	 viewBox="0 0 60 60" style="enable-background:new 0 0 60 60;" xml:space="preserve">
<style type="text/css">
	.st0{fill:none;stroke:#FFFFFF;stroke-width:12;stroke-miterlimit:10;}
	.st1{fill:#FFFFFF;}
	.st2{fill:none;stroke:#000000;stroke-width:3;stroke-miterlimit:10;}
	.st3{fill:none;}
	.st4{fill:none;stroke:#FFFFFF;stroke-width:2;stroke-miterlimit:10;}
</style>
<path class="st0" d="M-159.9-342.8"/>
<rect x="0.1" class="st1" width="59.9" height="60"/>
<path class="st2" d="M18.3,42.7c0,0,1-4.1-1.2-7.9S8.9,21.8,17.8,13c3.4-2.8,14.8-7.1,24.2,4.8c1.5,1.9,6.2,11.3,4.7,16.4
	c-0.1,1.2-1.9,1.9-2.8,2.5c-0.9,0.5-1.3,0.9-1.3,1.8c0,0.9-1.2,6.5-5.6,6.9c-4.4,0.5-8.2-1.5-10.9-5.6s-3.5-8.9-3.2-10.6
	c0.2-1.7,1.1-6.6,5.6-7.2c0,0,3-0.2,4.2,2.6c1.2,2.8,1.8,6.3-1.9,9c-3.7,2.7-9.5-2.3-9.8-2.5c-0.2-0.2-3.2-4.8-1.6-10.6
	c1.6-4.1,5.9-4.9,6.9-5s10.6-1.1,12.9,9.3c1.7,7.9-2.6,15.7-2.9,16.2c-0.3,0.5-4.3,9-6,9.2C28.3,50.3,18.3,42.7,18.3,42.7z"/>
<rect x="-30" y="-95.2" class="st1" width="120" height="60"/>
<path class="st2" d="M-21.2-50.1c0,0,1-4.1-1.2-7.9c-2.2-3.8-8.2-13.1,0.7-21.9C-18.4-82.7-7-87,2.5-75.1C4-73.3,8.7-63.8,7.2-58.7
	c-0.1,1.2-1.9,1.9-2.8,2.5c-0.9,0.5-1.3,0.9-1.3,1.8S1.8-48-2.6-47.5c-4.4,0.5-8.2-1.5-10.9-5.6s-3.5-8.9-3.2-10.6
	c0.2-1.7,1.1-6.6,5.6-7.2c0,0,3-0.2,4.2,2.6c1.2,2.8,1.8,6.3-1.9,9c-3.7,2.7-9.5-2.3-9.8-2.5c-0.2-0.2-3.2-4.8-1.6-10.6
	c1.6-4.1,5.9-4.9,6.9-5s10.6-1.1,12.9,9.3c1.7,7.9-2.6,15.7-2.9,16.2s-4.3,9-6,9.2C-11.2-42.6-21.2-50.1-21.2-50.1z"/>
<rect x="0.1" y="-80.6" class="st3" width="57.2" height="20.9"/>
<text transform="matrix(1 0 0 1 17.4433 -51.1784)" style="font-family:'Mulish-Bold'; font-size:33.6453px; letter-spacing:6;">SIA</text>
<rect x="-137.4" y="2.3" width="60" height="60"/>
<path class="st4" d="M-119.1,45c0,0,1-4.1-1.2-7.9c-2.2-3.8-8.2-13.1,0.7-21.9c3.4-2.8,14.8-7.1,24.2,4.8c1.5,1.9,6.2,11.3,4.7,16.4
	c-0.1,1.2-1.9,1.9-2.8,2.5c-0.9,0.5-1.3,0.9-1.3,1.8s-1.2,6.5-5.6,6.9c-4.4,0.5-8.2-1.5-10.9-5.6s-3.5-8.9-3.2-10.6
	c0.2-1.7,1.1-6.6,5.6-7.2c0,0,3-0.2,4.2,2.6c1.2,2.8,1.8,6.3-1.9,9c-3.7,2.7-9.5-2.3-9.8-2.5c-0.2-0.2-3.2-4.8-1.6-10.6
	c1.6-4.1,5.9-4.9,6.9-5c1-0.1,10.6-1.1,12.9,9.3c1.7,7.9-2.6,15.7-2.9,16.2s-4.3,9-6,9.2C-109,52.6-119.1,45-119.1,45z"/>
<rect x="-176" y="-95.2" width="120" height="60"/>
<path class="st4" d="M-167.3-50.1c0,0,1-4.1-1.2-7.9c-2.2-3.8-8.2-13.1,0.7-21.9c3.4-2.8,14.8-7.1,24.2,4.8
	c1.5,1.9,6.2,11.3,4.7,16.4c-0.1,1.2-1.9,1.9-2.8,2.5c-0.9,0.5-1.3,0.9-1.3,1.8s-1.2,6.5-5.6,6.9c-4.4,0.5-8.2-1.5-10.9-5.6
	s-3.5-8.9-3.2-10.6c0.2-1.7,1.1-6.6,5.6-7.2c0,0,3-0.2,4.2,2.6c1.2,2.8,1.8,6.3-1.9,9c-3.7,2.7-9.5-2.3-9.8-2.5
	c-0.2-0.2-3.2-4.8-1.6-10.6c1.6-4.1,5.9-4.9,6.9-5s10.6-1.1,12.9,9.3c1.7,7.9-2.6,15.7-2.9,16.2c-0.3,0.5-4.3,9-6,9.2
	C-157.2-42.6-167.3-50.1-167.3-50.1z"/>
<text transform="matrix(1 0 0 1 -128.5992 -51.1784)" class="st1" style="font-family:'Mulish-Bold'; font-size:33.6453px; letter-spacing:6;">SIA</text>
</svg>
